<svg width="50" height="34" viewBox="0 0 50 34" fill="none" xmlns="http://www.w3.org/2000/svg">
<path d="M0 30.5556C0 32.0897 1.24365 33.3333 2.77778 33.3333H47.2222C48.7563 33.3333 50 32.0897 50 30.5556V30.5556C50 29.0214 48.7563 27.7778 47.2222 27.7778H2.77778C1.24365 27.7778 0 29.0214 0 30.5556V30.5556ZM0 16.6667C0 18.2008 1.24365 19.4444 2.77778 19.4444H47.2222C48.7563 19.4444 50 18.2008 50 16.6667V16.6667C50 15.1325 48.7563 13.8889 47.2222 13.8889H2.77778C1.24365 13.8889 0 15.1325 0 16.6667V16.6667ZM2.77778 0C1.24365 0 0 1.24365 0 2.77778V2.77778C0 4.3119 1.24365 5.55556 2.77778 5.55556H47.2222C48.7563 5.55556 50 4.3119 50 2.77778V2.77778C50 1.24365 48.7563 0 47.2222 0H2.77778Z" fill="black"/>
</svg>
