<svg width="50" height="50" viewBox="0 0 50 50" fill="none" xmlns="http://www.w3.org/2000/svg">
<g clip-path="url(#clip0_36_264)">
<path d="M24.9998 29.1666C28.4582 29.1666 31.229 26.375 31.229 22.9166L31.2498 10.4166C31.2498 6.95829 28.4582 4.16663 24.9998 4.16663C21.5415 4.16663 18.7498 6.95829 18.7498 10.4166V22.9166C18.7498 26.375 21.5415 29.1666 24.9998 29.1666ZM36.0415 22.9166C36.0415 29.1666 30.7498 33.5416 24.9998 33.5416C19.2498 33.5416 13.9582 29.1666 13.9582 22.9166H10.4165C10.4165 30.0208 16.0832 35.8958 22.9165 36.9166V43.75H27.0832V36.9166C33.9165 35.9166 39.5832 30.0416 39.5832 22.9166H36.0415Z" fill="black"/>
</g>
<defs>
<clipPath id="clip0_36_264">
<rect width="50" height="50" fill="white"/>
</clipPath>
</defs>
</svg>
