<svg width="80" height="80" viewBox="0 0 80 80" fill="none" xmlns="http://www.w3.org/2000/svg">
<path fill-rule="evenodd" clip-rule="evenodd" d="M4.42667 0.532267V1.06448L3.32 1.07893L2.21333 1.09333L2.19813 1.63813L2.18299 2.18299L1.63813 2.19813L1.09333 2.21333L1.07893 3.32L1.06448 4.42667H0.532267H0V40V75.5733H0.532267H1.06448L1.07893 76.68L1.09333 77.7867L1.64 77.8019L2.18667 77.8171V78.3752V78.9333H3.30667H4.42667V79.4667V80H40H75.5733V79.4667V78.9333H76.6933H77.8133V78.3752V77.8171L78.36 77.8019L78.9067 77.7867L78.9211 76.68L78.9355 75.5733H79.4677H80V40V4.42667H79.4677H78.9355L78.9211 3.32L78.9067 2.21333L78.3619 2.19813L77.817 2.18299L77.8019 1.63813L77.7867 1.09333L76.68 1.07893L75.5733 1.06448V0.532267V0H40H4.42667V0.532267ZM71.0933 40V71.0933H40H8.90667V40V8.90667H40H71.0933V40ZM35.52 26.64V35.52H26.64H17.76V40V44.48H26.64H35.52V53.36V62.24H40H44.48V53.36V44.48H53.36H62.24V40V35.52H53.36H44.48V26.64V17.76H40H35.52V26.64Z" fill="black" fill-opacity="0.2"/>
<path fill-rule="evenodd" clip-rule="evenodd" d="M4.42667 0.532267V1.06448L3.32 1.07893L2.21333 1.09333L2.19813 1.63813L2.18299 2.18299L1.63813 2.19813L1.09333 2.21333L1.07893 3.32L1.06448 4.42667H0.532267H0V40V75.5733H0.532267H1.06448L1.07893 76.68L1.09333 77.7867L1.64 77.8019L2.18667 77.8171V78.3752V78.9333H3.30667H4.42667V79.4667V80H40H75.5733V79.4667V78.9333H76.6933H77.8133V78.3752V77.8171L78.36 77.8019L78.9067 77.7867L78.9211 76.68L78.9355 75.5733H79.4677H80V40V4.42667H79.4677H78.9355L78.9211 3.32L78.9067 2.21333L78.3619 2.19813L77.817 2.18299L77.8019 1.63813L77.7867 1.09333L76.68 1.07893L75.5733 1.06448V0.532267V0H40H4.42667V0.532267ZM71.0933 40V71.0933H40H8.90667V40V8.90667H40H71.0933V40ZM35.52 26.64V35.52H26.64H17.76V40V44.48H26.64H35.52V53.36V62.24H40H44.48V53.36V44.48H53.36H62.24V40V35.52H53.36H44.48V26.64V17.76H40H35.52V26.64Z" fill="black" fill-opacity="0.2"/>
<path fill-rule="evenodd" clip-rule="evenodd" d="M4.42667 0.532267V1.06448L3.32 1.07893L2.21333 1.09333L2.19813 1.63813L2.18299 2.18299L1.63813 2.19813L1.09333 2.21333L1.07893 3.32L1.06448 4.42667H0.532267H0V40V75.5733H0.532267H1.06448L1.07893 76.68L1.09333 77.7867L1.64 77.8019L2.18667 77.8171V78.3752V78.9333H3.30667H4.42667V79.4667V80H40H75.5733V79.4667V78.9333H76.6933H77.8133V78.3752V77.8171L78.36 77.8019L78.9067 77.7867L78.9211 76.68L78.9355 75.5733H79.4677H80V40V4.42667H79.4677H78.9355L78.9211 3.32L78.9067 2.21333L78.3619 2.19813L77.817 2.18299L77.8019 1.63813L77.7867 1.09333L76.68 1.07893L75.5733 1.06448V0.532267V0H40H4.42667V0.532267ZM71.0933 40V71.0933H40H8.90667V40V8.90667H40H71.0933V40ZM35.52 26.64V35.52H26.64H17.76V40V44.48H26.64H35.52V53.36V62.24H40H44.48V53.36V44.48H53.36H62.24V40V35.52H53.36H44.48V26.64V17.76H40H35.52V26.64Z" fill="black" fill-opacity="0.2"/>
<path fill-rule="evenodd" clip-rule="evenodd" d="M4.42667 0.532267V1.06448L3.32 1.07893L2.21333 1.09333L2.19813 1.63813L2.18299 2.18299L1.63813 2.19813L1.09333 2.21333L1.07893 3.32L1.06448 4.42667H0.532267H0V40V75.5733H0.532267H1.06448L1.07893 76.68L1.09333 77.7867L1.64 77.8019L2.18667 77.8171V78.3752V78.9333H3.30667H4.42667V79.4667V80H40H75.5733V79.4667V78.9333H76.6933H77.8133V78.3752V77.8171L78.36 77.8019L78.9067 77.7867L78.9211 76.68L78.9355 75.5733H79.4677H80V40V4.42667H79.4677H78.9355L78.9211 3.32L78.9067 2.21333L78.3619 2.19813L77.817 2.18299L77.8019 1.63813L77.7867 1.09333L76.68 1.07893L75.5733 1.06448V0.532267V0H40H4.42667V0.532267ZM71.0933 40V71.0933H40H8.90667V40V8.90667H40H71.0933V40ZM35.52 26.64V35.52H26.64H17.76V40V44.48H26.64H35.52V53.36V62.24H40H44.48V53.36V44.48H53.36H62.24V40V35.52H53.36H44.48V26.64V17.76H40H35.52V26.64Z" fill="black" fill-opacity="0.2"/>
<path fill-rule="evenodd" clip-rule="evenodd" d="M4.42667 0.532267V1.06448L3.32 1.07893L2.21333 1.09333L2.19813 1.63813L2.18299 2.18299L1.63813 2.19813L1.09333 2.21333L1.07893 3.32L1.06448 4.42667H0.532267H0V40V75.5733H0.532267H1.06448L1.07893 76.68L1.09333 77.7867L1.64 77.8019L2.18667 77.8171V78.3752V78.9333H3.30667H4.42667V79.4667V80H40H75.5733V79.4667V78.9333H76.6933H77.8133V78.3752V77.8171L78.36 77.8019L78.9067 77.7867L78.9211 76.68L78.9355 75.5733H79.4677H80V40V4.42667H79.4677H78.9355L78.9211 3.32L78.9067 2.21333L78.3619 2.19813L77.817 2.18299L77.8019 1.63813L77.7867 1.09333L76.68 1.07893L75.5733 1.06448V0.532267V0H40H4.42667V0.532267ZM71.0933 40V71.0933H40H8.90667V40V8.90667H40H71.0933V40ZM35.52 26.64V35.52H26.64H17.76V40V44.48H26.64H35.52V53.36V62.24H40H44.48V53.36V44.48H53.36H62.24V40V35.52H53.36H44.48V26.64V17.76H40H35.52V26.64Z" fill="black" fill-opacity="0.2"/>
<path fill-rule="evenodd" clip-rule="evenodd" d="M4.42667 0.532267V1.06448L3.32 1.07893L2.21333 1.09333L2.19813 1.63813L2.18299 2.18299L1.63813 2.19813L1.09333 2.21333L1.07893 3.32L1.06448 4.42667H0.532267H0V40V75.5733H0.532267H1.06448L1.07893 76.68L1.09333 77.7867L1.64 77.8019L2.18667 77.8171V78.3752V78.9333H3.30667H4.42667V79.4667V80H40H75.5733V79.4667V78.9333H76.6933H77.8133V78.3752V77.8171L78.36 77.8019L78.9067 77.7867L78.9211 76.68L78.9355 75.5733H79.4677H80V40V4.42667H79.4677H78.9355L78.9211 3.32L78.9067 2.21333L78.3619 2.19813L77.817 2.18299L77.8019 1.63813L77.7867 1.09333L76.68 1.07893L75.5733 1.06448V0.532267V0H40H4.42667V0.532267ZM71.0933 40V71.0933H40H8.90667V40V8.90667H40H71.0933V40ZM35.52 26.64V35.52H26.64H17.76V40V44.48H26.64H35.52V53.36V62.24H40H44.48V53.36V44.48H53.36H62.24V40V35.52H53.36H44.48V26.64V17.76H40H35.52V26.64Z" fill="black" fill-opacity="0.2"/>
<path fill-rule="evenodd" clip-rule="evenodd" d="M4.42667 0.532267V1.06448L3.32 1.07893L2.21333 1.09333L2.19813 1.63813L2.18299 2.18299L1.63813 2.19813L1.09333 2.21333L1.07893 3.32L1.06448 4.42667H0.532267H0V40V75.5733H0.532267H1.06448L1.07893 76.68L1.09333 77.7867L1.64 77.8019L2.18667 77.8171V78.3752V78.9333H3.30667H4.42667V79.4667V80H40H75.5733V79.4667V78.9333H76.6933H77.8133V78.3752V77.8171L78.36 77.8019L78.9067 77.7867L78.9211 76.68L78.9355 75.5733H79.4677H80V40V4.42667H79.4677H78.9355L78.9211 3.32L78.9067 2.21333L78.3619 2.19813L77.817 2.18299L77.8019 1.63813L77.7867 1.09333L76.68 1.07893L75.5733 1.06448V0.532267V0H40H4.42667V0.532267ZM71.0933 40V71.0933H40H8.90667V40V8.90667H40H71.0933V40ZM35.52 26.64V35.52H26.64H17.76V40V44.48H26.64H35.52V53.36V62.24H40H44.48V53.36V44.48H53.36H62.24V40V35.52H53.36H44.48V26.64V17.76H40H35.52V26.64Z" fill="black" fill-opacity="0.2"/>
<path fill-rule="evenodd" clip-rule="evenodd" d="M4.42667 0.532267V1.06448L3.32 1.07893L2.21333 1.09333L2.19813 1.63813L2.18299 2.18299L1.63813 2.19813L1.09333 2.21333L1.07893 3.32L1.06448 4.42667H0.532267H0V40V75.5733H0.532267H1.06448L1.07893 76.68L1.09333 77.7867L1.64 77.8019L2.18667 77.8171V78.3752V78.9333H3.30667H4.42667V79.4667V80H40H75.5733V79.4667V78.9333H76.6933H77.8133V78.3752V77.8171L78.36 77.8019L78.9067 77.7867L78.9211 76.68L78.9355 75.5733H79.4677H80V40V4.42667H79.4677H78.9355L78.9211 3.32L78.9067 2.21333L78.3619 2.19813L77.817 2.18299L77.8019 1.63813L77.7867 1.09333L76.68 1.07893L75.5733 1.06448V0.532267V0H40H4.42667V0.532267ZM71.0933 40V71.0933H40H8.90667V40V8.90667H40H71.0933V40ZM35.52 26.64V35.52H26.64H17.76V40V44.48H26.64H35.52V53.36V62.24H40H44.48V53.36V44.48H53.36H62.24V40V35.52H53.36H44.48V26.64V17.76H40H35.52V26.64Z" fill="black" fill-opacity="0.2"/>
</svg>
